<?xml version="1.0" encoding="UTF-8" standalone="no"?>
<!-- Created with Inkscape (http://www.inkscape.org/) -->

<svg
   width="192mm"
   height="108mm"
   viewBox="0 0 192 108"
   version="1.1"
   id="svg1"
   xml:space="preserve"
   inkscape:version="1.3 (0e150ed, 2023-07-21)"
   sodipodi:docname="reproducibility-barriers.svg"
   xmlns:inkscape="http://www.inkscape.org/namespaces/inkscape"
   xmlns:sodipodi="http://sodipodi.sourceforge.net/DTD/sodipodi-0.dtd"
   xmlns="http://www.w3.org/2000/svg"
   xmlns:svg="http://www.w3.org/2000/svg"><sodipodi:namedview
     id="namedview1"
     pagecolor="#ffffff"
     bordercolor="#666666"
     borderopacity="1.0"
     inkscape:showpageshadow="2"
     inkscape:pageopacity="0.0"
     inkscape:pagecheckerboard="true"
     inkscape:deskcolor="#d1d1d1"
     inkscape:document-units="mm"
     inkscape:zoom="0.87335972"
     inkscape:cx="1059.1283"
     inkscape:cy="-62.402695"
     inkscape:window-width="2560"
     inkscape:window-height="1302"
     inkscape:window-x="54"
     inkscape:window-y="31"
     inkscape:window-maximized="0"
     inkscape:current-layer="g76" /><defs
     id="defs1" /><g
     inkscape:label="Layer 1"
     inkscape:groupmode="layer"
     id="layer1"><g
       id="g75"
       transform="matrix(0.93764077,0,0,0.93764077,-33.210463,-94.965069)"><g
         id="g7"
         transform="translate(49.569745)"><rect
           style="fill:#ffaaaa;stroke:#ffffff;stroke-width:0.5;stroke-linecap:round;stroke-dasharray:none"
           id="rect1"
           width="6.9957304"
           height="6.9957304"
           x="42.751682"
           y="109.59977" /><rect
           style="fill:#aade87;stroke:#ffffff;stroke-width:0.5;stroke-linecap:round;stroke-dasharray:none"
           id="rect2"
           width="6.9957304"
           height="6.9957304"
           x="42.751682"
           y="142.55594" /><g
           id="path2"
           transform="translate(0.69957148,0.67849936)"><path
             style="color:#000000;fill:#ffffff;-inkscape-stroke:none"
             d="m 45.300781,117.68359 v 19.27735 h 0.5 v -19.27735 z"
             id="path4" /><g
             id="g3"><path
               d="m 46.949976,136.26085 -1.4,3.85 -1.4,-3.85 c 0.8155,0.7 1.981,0.7 2.8,0 z"
               style="color:#000000;fill:#ffffff;fill-rule:evenodd;-inkscape-stroke:none"
               id="path3" /></g></g></g><g
         id="g11"
         transform="translate(41.308121)"><rect
           style="fill:#ffaaaa;stroke:#ffffff;stroke-width:0.5;stroke-linecap:round;stroke-dasharray:none"
           id="rect7"
           width="6.9957304"
           height="6.9957304"
           x="42.751682"
           y="109.59977" /><rect
           style="fill:#aade87;stroke:#ffffff;stroke-width:0.5;stroke-linecap:round;stroke-dasharray:none"
           id="rect8"
           width="6.9957304"
           height="6.9957304"
           x="42.751682"
           y="142.55594" /><g
           id="g10"
           transform="translate(0.69957148,0.67849936)"><path
             style="color:#000000;fill:#ffffff;-inkscape-stroke:none"
             d="m 45.300781,117.68359 v 19.27735 h 0.5 v -19.27735 z"
             id="path8" /><g
             id="g9"><path
               d="m 46.949976,136.26085 -1.4,3.85 -1.4,-3.85 c 0.8155,0.7 1.981,0.7 2.8,0 z"
               style="color:#000000;fill:#ffffff;fill-rule:evenodd;-inkscape-stroke:none"
               id="path9" /></g></g></g><g
         id="g15"
         transform="translate(33.046497)"><rect
           style="fill:#ffaaaa;stroke:#ffffff;stroke-width:0.5;stroke-linecap:round;stroke-dasharray:none"
           id="rect11"
           width="6.9957304"
           height="6.9957304"
           x="42.751682"
           y="109.59977" /><rect
           style="fill:#aade87;stroke:#ffffff;stroke-width:0.5;stroke-linecap:round;stroke-dasharray:none"
           id="rect12"
           width="6.9957304"
           height="6.9957304"
           x="42.751682"
           y="142.55594" /><g
           id="g14"
           transform="translate(0.69957148,0.67849936)"><path
             style="color:#000000;fill:#ffffff;-inkscape-stroke:none"
             d="m 45.300781,117.68359 v 19.27735 h 0.5 v -19.27735 z"
             id="path12" /><g
             id="g13"><path
               d="m 46.949976,136.26085 -1.4,3.85 -1.4,-3.85 c 0.8155,0.7 1.981,0.7 2.8,0 z"
               style="color:#000000;fill:#ffffff;fill-rule:evenodd;-inkscape-stroke:none"
               id="path13" /></g></g></g><g
         id="g19"
         transform="translate(24.784872)"><rect
           style="fill:#ffaaaa;stroke:#ffffff;stroke-width:0.5;stroke-linecap:round;stroke-dasharray:none"
           id="rect15"
           width="6.9957304"
           height="6.9957304"
           x="42.751682"
           y="109.59977" /><rect
           style="fill:#aade87;stroke:#ffffff;stroke-width:0.5;stroke-linecap:round;stroke-dasharray:none"
           id="rect16"
           width="6.9957304"
           height="6.9957304"
           x="42.751682"
           y="142.55594" /><g
           id="g18"
           transform="translate(0.69957148,0.67849936)"><path
             style="color:#000000;fill:#ffffff;-inkscape-stroke:none"
             d="m 45.300781,117.68359 v 19.27735 h 0.5 v -19.27735 z"
             id="path16" /><g
             id="g17"><path
               d="m 46.949976,136.26085 -1.4,3.85 -1.4,-3.85 c 0.8155,0.7 1.981,0.7 2.8,0 z"
               style="color:#000000;fill:#ffffff;fill-rule:evenodd;-inkscape-stroke:none"
               id="path17" /></g></g></g><g
         id="g23"
         transform="translate(16.523248)"><rect
           style="fill:#ffaaaa;stroke:#ffffff;stroke-width:0.5;stroke-linecap:round;stroke-dasharray:none"
           id="rect19"
           width="6.9957304"
           height="6.9957304"
           x="42.751682"
           y="109.59977" /><rect
           style="fill:#aade87;stroke:#ffffff;stroke-width:0.5;stroke-linecap:round;stroke-dasharray:none"
           id="rect20"
           width="6.9957304"
           height="6.9957304"
           x="42.751682"
           y="142.55594" /><g
           id="g22"
           transform="translate(0.69957148,0.67849936)"><path
             style="color:#000000;fill:#ffffff;-inkscape-stroke:none"
             d="m 45.300781,117.68359 v 19.27735 h 0.5 v -19.27735 z"
             id="path20" /><g
             id="g21"><path
               d="m 46.949976,136.26085 -1.4,3.85 -1.4,-3.85 c 0.8155,0.7 1.981,0.7 2.8,0 z"
               style="color:#000000;fill:#ffffff;fill-rule:evenodd;-inkscape-stroke:none"
               id="path21" /></g></g></g><g
         id="g27"
         transform="translate(8.2616241)"><rect
           style="fill:#ffaaaa;stroke:#ffffff;stroke-width:0.5;stroke-linecap:round;stroke-dasharray:none"
           id="rect23"
           width="6.9957304"
           height="6.9957304"
           x="42.751682"
           y="109.59977" /><rect
           style="fill:#aade87;stroke:#ffffff;stroke-width:0.5;stroke-linecap:round;stroke-dasharray:none"
           id="rect24"
           width="6.9957304"
           height="6.9957304"
           x="42.751682"
           y="142.55594" /><g
           id="g26"
           transform="translate(0.69957148,0.67849936)"><path
             style="color:#000000;fill:#ffffff;-inkscape-stroke:none"
             d="m 45.300781,117.68359 v 19.27735 h 0.5 v -19.27735 z"
             id="path24" /><g
             id="g25"><path
               d="m 46.949976,136.26085 -1.4,3.85 -1.4,-3.85 c 0.8155,0.7 1.981,0.7 2.8,0 z"
               style="color:#000000;fill:#ffffff;fill-rule:evenodd;-inkscape-stroke:none"
               id="path25" /></g></g></g><g
         id="g31"><rect
           style="fill:#ffaaaa;stroke:#ffffff;stroke-width:0.5;stroke-linecap:round;stroke-dasharray:none"
           id="rect27"
           width="6.9957304"
           height="6.9957304"
           x="42.751682"
           y="109.59977" /><rect
           style="fill:#aade87;stroke:#ffffff;stroke-width:0.5;stroke-linecap:round;stroke-dasharray:none"
           id="rect28"
           width="6.9957304"
           height="6.9957304"
           x="42.751682"
           y="142.55594" /><g
           id="g30"
           transform="translate(0.69957148,0.67849936)"><path
             style="color:#000000;fill:#ffffff;-inkscape-stroke:none"
             d="m 45.300781,117.68359 v 19.27735 h 0.5 v -19.27735 z"
             id="path28" /><g
             id="g29"><path
               d="m 46.949976,136.26085 -1.4,3.85 -1.4,-3.85 c 0.8155,0.7 1.981,0.7 2.8,0 z"
               style="color:#000000;fill:#ffffff;fill-rule:evenodd;-inkscape-stroke:none"
               id="path29" /></g></g></g><g
         id="g35"
         transform="translate(57.831369)"><rect
           style="fill:#ffaaaa;stroke:#ffffff;stroke-width:0.5;stroke-linecap:round;stroke-dasharray:none"
           id="rect31"
           width="6.9957304"
           height="6.9957304"
           x="42.751682"
           y="109.59977" /><rect
           style="fill:#aade87;stroke:#ffffff;stroke-width:0.5;stroke-linecap:round;stroke-dasharray:none"
           id="rect32"
           width="6.9957304"
           height="6.9957304"
           x="42.751682"
           y="142.55594" /><g
           id="g34"
           transform="translate(0.69957148,0.67849936)"><path
             style="color:#000000;fill:#ffffff;-inkscape-stroke:none"
             d="m 45.300781,117.68359 v 19.27735 h 0.5 v -19.27735 z"
             id="path32" /><g
             id="g33"><path
               d="m 46.949976,136.26085 -1.4,3.85 -1.4,-3.85 c 0.8155,0.7 1.981,0.7 2.8,0 z"
               style="color:#000000;fill:#ffffff;fill-rule:evenodd;-inkscape-stroke:none"
               id="path33" /></g></g></g></g><g
       id="g74"
       transform="matrix(0.93764077,0,0,0.93764077,-123.00248,-40.73597)"><rect
         style="fill:#ffaaaa;stroke:#ffffff;stroke-width:0.5;stroke-linecap:round;stroke-dasharray:none"
         id="rect35"
         width="6.9957304"
         height="6.9957304"
         x="188.08521"
         y="109.59977" /><rect
         style="fill:#aade87;stroke:#ffffff;stroke-width:0.5;stroke-linecap:round;stroke-dasharray:none"
         id="rect36"
         width="6.9957304"
         height="6.9957304"
         x="188.08521"
         y="142.55594" /><rect
         style="fill:#ffaaaa;stroke:#ffffff;stroke-width:0.5;stroke-linecap:round;stroke-dasharray:none"
         id="rect39"
         width="6.9957304"
         height="6.9957304"
         x="179.82358"
         y="109.59977" /><rect
         style="fill:#aade87;stroke:#ffffff;stroke-width:0.5;stroke-linecap:round;stroke-dasharray:none"
         id="rect40"
         width="6.9957304"
         height="6.9957304"
         x="179.82358"
         y="142.55594" /><rect
         style="fill:#ffaaaa;stroke:#ffffff;stroke-width:0.5;stroke-linecap:round;stroke-dasharray:none"
         id="rect43"
         width="6.9957304"
         height="6.9957304"
         x="171.56195"
         y="109.59977" /><rect
         style="fill:#aade87;stroke:#ffffff;stroke-width:0.5;stroke-linecap:round;stroke-dasharray:none"
         id="rect44"
         width="6.9957304"
         height="6.9957304"
         x="171.56195"
         y="142.55594" /><rect
         style="fill:#ffaaaa;stroke:#ffffff;stroke-width:0.5;stroke-linecap:round;stroke-dasharray:none"
         id="rect47"
         width="6.9957304"
         height="6.9957304"
         x="163.30032"
         y="109.59977" /><rect
         style="fill:#aade87;stroke:#ffffff;stroke-width:0.5;stroke-linecap:round;stroke-dasharray:none"
         id="rect48"
         width="6.9957304"
         height="6.9957304"
         x="163.30032"
         y="142.55594" /><rect
         style="fill:#ffaaaa;stroke:#ffffff;stroke-width:0.5;stroke-linecap:round;stroke-dasharray:none"
         id="rect51"
         width="6.9957304"
         height="6.9957304"
         x="155.0387"
         y="109.59977" /><rect
         style="fill:#aade87;stroke:#ffffff;stroke-width:0.5;stroke-linecap:round;stroke-dasharray:none"
         id="rect52"
         width="6.9957304"
         height="6.9957304"
         x="155.0387"
         y="142.55594" /><rect
         style="fill:#ffaaaa;stroke:#ffffff;stroke-width:0.5;stroke-linecap:round;stroke-dasharray:none"
         id="rect55"
         width="6.9957304"
         height="6.9957304"
         x="146.77708"
         y="109.59977" /><rect
         style="fill:#aade87;stroke:#ffffff;stroke-width:0.5;stroke-linecap:round;stroke-dasharray:none"
         id="rect56"
         width="6.9957304"
         height="6.9957304"
         x="146.77708"
         y="142.55594" /><rect
         style="fill:#ffaaaa;stroke:#ffffff;stroke-width:0.5;stroke-linecap:round;stroke-dasharray:none"
         id="rect59"
         width="6.9957304"
         height="6.9957304"
         x="138.51546"
         y="109.59977" /><rect
         style="fill:#aade87;stroke:#ffffff;stroke-width:0.5;stroke-linecap:round;stroke-dasharray:none"
         id="rect60"
         width="6.9957304"
         height="6.9957304"
         x="138.51546"
         y="142.55594" /><rect
         style="fill:#ffaaaa;stroke:#ffffff;stroke-width:0.5;stroke-linecap:round;stroke-dasharray:none"
         id="rect63"
         width="6.9957304"
         height="6.9957304"
         x="196.34682"
         y="109.59977" /><rect
         style="fill:#aade87;stroke:#ffffff;stroke-width:0.5;stroke-linecap:round;stroke-dasharray:none"
         id="rect64"
         width="6.9957304"
         height="6.9957304"
         x="196.34682"
         y="142.55594" /><g
         id="g38"
         transform="translate(108.85578,-1.8283077)"><path
           style="color:#000000;fill:#ffffff;-inkscape-stroke:none"
           d="m 45.300781,122.32183 v 14.63911 h 0.5 v -14.63911 z"
           id="path36"
           sodipodi:nodetypes="ccccc" /><g
           id="g37"><path
             d="m 46.949976,136.26085 -1.4,3.85 -1.4,-3.85 c 0.8155,0.7 1.981,0.7 2.8,0 z"
             style="color:#000000;fill:#ffffff;fill-rule:evenodd;-inkscape-stroke:none"
             id="path37" /></g></g><path
         style="fill:none;stroke:#ffffff;stroke-width:0.264583px;stroke-linecap:butt;stroke-linejoin:miter;stroke-opacity:1"
         d="m 138.15389,117.34561 c 0,1.32519 16.25187,0.92171 16.25187,2.57129 0,-1.65353 16.25187,-1.31688 16.25187,-2.57129"
         id="path67"
         sodipodi:nodetypes="ccc" /><path
         style="fill:none;stroke:#ffffff;stroke-width:0.264583px;stroke-linecap:butt;stroke-linejoin:miter;stroke-opacity:1"
         d="m 138.15389,141.80583 c 0,-1.32519 16.25187,-0.92171 16.25187,-2.57129 0,1.65353 16.25187,1.31688 16.25187,2.57129"
         id="path69"
         sodipodi:nodetypes="ccc" /><path
         style="fill:none;stroke:#ffffff;stroke-width:0.264583px;stroke-linecap:butt;stroke-linejoin:miter;stroke-opacity:1"
         d="m 171.20039,117.34561 c 0,1.32519 16.25187,0.92171 16.25187,2.57129 0,-1.65353 16.25187,-1.31688 16.25187,-2.57129"
         id="path68"
         sodipodi:nodetypes="ccc" /><path
         style="fill:none;stroke:#ffffff;stroke-width:0.264583px;stroke-linecap:butt;stroke-linejoin:miter;stroke-opacity:1"
         d="m 171.20039,141.80583 c 0,-1.32519 16.25187,-0.92171 16.25187,-2.57129 0,1.65353 16.25187,1.31688 16.25187,2.57129"
         id="path70"
         sodipodi:nodetypes="ccc" /><g
         id="g73"
         transform="translate(141.90228,-1.8283077)"><path
           style="color:#000000;fill:#ffffff;-inkscape-stroke:none"
           d="m 45.300781,122.32183 v 14.63911 h 0.5 v -14.63911 z"
           id="path71"
           sodipodi:nodetypes="ccccc" /><g
           id="g72"><path
             d="m 46.949976,136.26085 -1.4,3.85 -1.4,-3.85 c 0.8155,0.7 1.981,0.7 2.8,0 z"
             style="color:#000000;fill:#ffffff;fill-rule:evenodd;-inkscape-stroke:none"
             id="path72" /></g></g></g><text
       xml:space="preserve"
       style="font-size:6.94771px;line-height:1.25;font-family:sans-serif;text-align:end;text-anchor:end;fill:#ffffff;stroke-width:0.434232"
       x="160.10655"
       y="18.348896"
       id="text75"><tspan
         sodipodi:role="line"
         id="tspan75"
         style="font-style:normal;font-variant:normal;font-weight:normal;font-stretch:normal;font-family:Courier;-inkscape-font-specification:Courier;fill:#ffffff;stroke-width:0.434232"
         x="160.10655"
         y="18.348896">-funsafe-math</tspan></text><g
       inkscape:label="Layer 1"
       id="layer1-6"
       transform="matrix(0.63592053,0,0,0.63592053,84.154979,-7.3013415)"><path
         id="rect1-2"
         style="fill:#2d5016;stroke:#ffffff;stroke-width:1;stroke-linejoin:round;stroke-miterlimit:3.9;stroke-dashoffset:3.77953;paint-order:markers fill stroke"
         d="m 38.371301,75.783488 v 36.932632 h 10.846883 v 6.03219 h 67.577266 v -6.03219 h 4.55425 V 75.783488 Z" /><path
         style="fill:#ffffff;stroke:#ffd42a;stroke-width:1;stroke-linejoin:round;stroke-miterlimit:3.9;stroke-dashoffset:3.77953;paint-order:markers fill stroke"
         d="m 51.467088,112.47441 v 6.27648"
         id="path2-5" /><path
         style="fill:#ffffff;stroke:#ffd42a;stroke-width:1;stroke-linejoin:round;stroke-miterlimit:3.9;stroke-dashoffset:3.77953;paint-order:markers fill stroke"
         d="m 53.712226,112.47441 v 6.27648"
         id="path3-1" /><path
         style="fill:#ffffff;stroke:#ffd42a;stroke-width:1;stroke-linejoin:round;stroke-miterlimit:3.9;stroke-dashoffset:3.77953;paint-order:markers fill stroke"
         d="m 55.957363,112.47441 v 6.27648"
         id="path4-3" /><path
         style="fill:#ffffff;stroke:#ffd42a;stroke-width:1;stroke-linejoin:round;stroke-miterlimit:3.9;stroke-dashoffset:3.77953;paint-order:markers fill stroke"
         d="m 58.202501,112.47441 v 6.27648"
         id="path5" /><path
         style="fill:#ffffff;stroke:#ffd42a;stroke-width:1;stroke-linejoin:round;stroke-miterlimit:3.9;stroke-dashoffset:3.77953;paint-order:markers fill stroke"
         d="m 60.447638,112.47441 v 6.27648"
         id="path6" /><path
         style="fill:#ffffff;stroke:#ffd42a;stroke-width:1;stroke-linejoin:round;stroke-miterlimit:3.9;stroke-dashoffset:3.77953;paint-order:markers fill stroke"
         d="m 62.692776,112.47441 v 6.27648"
         id="path7" /><path
         style="fill:#ffffff;stroke:#ffd42a;stroke-width:1;stroke-linejoin:round;stroke-miterlimit:3.9;stroke-dashoffset:3.77953;paint-order:markers fill stroke"
         d="m 64.937913,112.47441 v 6.27648"
         id="path8-9" /><path
         style="fill:#ffffff;stroke:#ffd42a;stroke-width:1;stroke-linejoin:round;stroke-miterlimit:3.9;stroke-dashoffset:3.77953;paint-order:markers fill stroke"
         d="m 67.183051,112.47441 v 6.27648"
         id="path9-7" /><path
         style="fill:#ffffff;stroke:#ffd42a;stroke-width:1;stroke-linejoin:round;stroke-miterlimit:3.9;stroke-dashoffset:3.77953;paint-order:markers fill stroke"
         d="m 69.428189,112.47441 v 6.27648"
         id="path10" /><path
         style="fill:#ffffff;stroke:#ffd42a;stroke-width:1;stroke-linejoin:round;stroke-miterlimit:3.9;stroke-dashoffset:3.77953;paint-order:markers fill stroke"
         d="m 71.673326,112.47441 v 6.27648"
         id="path11" /><path
         style="fill:#ffffff;stroke:#ffd42a;stroke-width:1;stroke-linejoin:round;stroke-miterlimit:3.9;stroke-dashoffset:3.77953;paint-order:markers fill stroke"
         d="m 73.918464,112.47441 v 6.27648"
         id="path12-3" /><path
         style="fill:#ffffff;stroke:#ffd42a;stroke-width:1;stroke-linejoin:round;stroke-miterlimit:3.9;stroke-dashoffset:3.77953;paint-order:markers fill stroke"
         d="m 76.163601,112.47441 v 6.27648"
         id="path13-7" /><path
         style="fill:#ffffff;stroke:#ffd42a;stroke-width:1;stroke-linejoin:round;stroke-miterlimit:3.9;stroke-dashoffset:3.77953;paint-order:markers fill stroke"
         d="m 103.10525,112.47441 v 6.27648"
         id="path15" /><path
         style="fill:#ffffff;stroke:#ffd42a;stroke-width:1;stroke-linejoin:round;stroke-miterlimit:3.9;stroke-dashoffset:3.77953;paint-order:markers fill stroke"
         d="m 100.86011,112.47441 v 6.27648"
         id="path30" /><path
         style="fill:#ffffff;stroke:#ffd42a;stroke-width:1;stroke-linejoin:round;stroke-miterlimit:3.9;stroke-dashoffset:3.77953;paint-order:markers fill stroke"
         d="m 96.369839,112.47441 v 6.27648"
         id="path32-5" /><path
         style="fill:#ffffff;stroke:#ffd42a;stroke-width:1;stroke-linejoin:round;stroke-miterlimit:3.9;stroke-dashoffset:3.77953;paint-order:markers fill stroke"
         d="m 94.124702,112.47441 v 6.27648"
         id="path33-0" /><path
         style="fill:#ffffff;stroke:#ffd42a;stroke-width:1;stroke-linejoin:round;stroke-miterlimit:3.9;stroke-dashoffset:3.77953;paint-order:markers fill stroke"
         d="m 91.879564,112.47441 v 6.27648"
         id="path34" /><path
         style="fill:#ffffff;stroke:#ffd42a;stroke-width:1;stroke-linejoin:round;stroke-miterlimit:3.9;stroke-dashoffset:3.77953;paint-order:markers fill stroke"
         d="m 89.634427,112.47441 v 6.27648"
         id="path35" /><path
         style="fill:#ffffff;stroke:#ffd42a;stroke-width:1;stroke-linejoin:round;stroke-miterlimit:3.9;stroke-dashoffset:3.77953;paint-order:markers fill stroke"
         d="m 87.389289,112.47441 v 6.27648"
         id="path37-2" /><path
         style="fill:#ffffff;stroke:#ffd42a;stroke-width:1;stroke-linejoin:round;stroke-miterlimit:3.9;stroke-dashoffset:3.77953;paint-order:markers fill stroke"
         d="m 85.144152,112.47441 v 6.27648"
         id="path38" /><path
         style="fill:#ffffff;stroke:#ffd42a;stroke-width:1;stroke-linejoin:round;stroke-miterlimit:3.9;stroke-dashoffset:3.77953;paint-order:markers fill stroke"
         d="m 82.899014,112.47441 v 6.27648"
         id="path39" /><path
         style="fill:#ffffff;stroke:#ffd42a;stroke-width:1;stroke-linejoin:round;stroke-miterlimit:3.9;stroke-dashoffset:3.77953;paint-order:markers fill stroke"
         d="m 80.653876,112.47441 v 6.27648"
         id="path40" /><path
         style="fill:#ffffff;stroke:#ffd42a;stroke-width:1;stroke-linejoin:round;stroke-miterlimit:3.9;stroke-dashoffset:3.77953;paint-order:markers fill stroke"
         d="m 78.408739,112.47441 v 6.27648"
         id="path41" /><path
         style="fill:#ffffff;stroke:#ffd42a;stroke-width:1;stroke-linejoin:round;stroke-miterlimit:3.9;stroke-dashoffset:3.77953;paint-order:markers fill stroke"
         d="m 105.35039,112.47441 v 6.27648"
         id="path42" /><path
         style="fill:#ffffff;stroke:#ffd42a;stroke-width:1;stroke-linejoin:round;stroke-miterlimit:3.9;stroke-dashoffset:3.77953;paint-order:markers fill stroke"
         d="m 107.59553,112.47441 v 6.27648"
         id="path43" /><path
         style="fill:#ffffff;stroke:#ffd42a;stroke-width:1;stroke-linejoin:round;stroke-miterlimit:3.9;stroke-dashoffset:3.77953;paint-order:markers fill stroke"
         d="m 109.84066,112.47441 v 6.27648"
         id="path44" /><path
         style="fill:#ffffff;stroke:#ffd42a;stroke-width:1;stroke-linejoin:round;stroke-miterlimit:3.9;stroke-dashoffset:3.77953;paint-order:markers fill stroke"
         d="m 112.0858,112.47441 v 6.27648"
         id="path45" /><path
         style="fill:#ffffff;stroke:#ffd42a;stroke-width:1;stroke-linejoin:round;stroke-miterlimit:3.9;stroke-dashoffset:3.77953;paint-order:markers fill stroke"
         d="m 114.33094,112.47441 v 6.27648"
         id="path46" /><path
         style="fill:none;stroke:#ffffff;stroke-width:1;stroke-linejoin:round;stroke-miterlimit:3.9;stroke-dashoffset:3.77953;paint-order:markers fill stroke"
         d="M 38.371301,89.427803 V 69.547511 h -8.106524"
         id="path47" /></g><g
       id="g76"
       transform="matrix(0.09907802,0,0,0.09907802,84.624354,85.829883)"><rect
         x="4.6999998"
         y="5.1999998"
         class="st0"
         width="28.1"
         height="28.1"
         id="rect1-5" /><g
         id="g2"
         style="fill:#ffffff">&#10;	<path
   d="M 32.1,151.6 V 50.4 H 5.5 v 101.2 z m 176.8,1 v -24.8 c -3.9,0 -7.2,-0.2 -9.6,-0.6 -2.8,-0.4 -4.9,-1.4 -6.3,-2.8 -1.4,-1.4 -2.3,-3.4 -2.8,-6 -0.4,-2.5 -0.6,-5.8 -0.6,-9.8 V 73.2 h 19.3 V 50.4 H 189.6 V 10.9 h -26.7 v 97.9 c 0,8.3 0.7,15.3 2.1,20.9 1.4,5.5 3.8,10 7.1,13.4 3.3,3.4 7.7,5.8 13,7.3 5.4,1.5 12.2,2.2 20.3,2.2 z m 152.8,-1 V 3.1 H 335 V 151.6 Z M 137.2,60.3 c -7.4,-8 -17.8,-12 -31,-12 -6.4,0 -12.2,1.3 -17.5,3.9 C 83.5,54.8 79,58.4 75.5,63 L 74,64.9 V 63.2 50.4 H 47.7 v 101.2 h 26.5 v -53.9 3.7 c 0,-0.6 0,-1.2 0,-1.8 0.3,-9.5 2.6,-16.5 7,-21 4.7,-4.8 10.4,-7.2 16.9,-7.2 7.7,0 13.6,2.4 17.5,7 3.8,4.6 5.8,11.1 5.8,19.4 v 0 0.2 0 0 53.5 h 26.9 V 94.1 c 0.1,-14.4 -3.7,-25.8 -11.1,-33.8 z m 184,40.5 c 0,-7.3 -1.3,-14.1 -3.8,-20.5 -2.6,-6.3 -6.2,-11.9 -10.7,-16.7 -4.6,-4.8 -10.1,-8.5 -16.5,-11.2 -6.4,-2.7 -13.5,-4 -21.2,-4 -7.3,0 -14.2,1.4 -20.6,4.1 -6.4,2.8 -12,6.5 -16.7,11.2 -4.7,4.7 -8.5,10.3 -11.2,16.7 -2.8,6.4 -4.1,13.3 -4.1,20.6 0,7.3 1.3,14.2 3.9,20.6 2.6,6.4 6.3,12 10.9,16.7 4.6,4.7 10.3,8.5 16.9,11.2 6.6,2.8 13.9,4.2 21.7,4.2 22.6,0 36.6,-10.3 45,-19.9 l -19.2,-14.6 c -4,4.8 -13.6,11.3 -25.6,11.3 -7.5,0 -13.7,-1.7 -18.4,-5.2 -4.7,-3.4 -7.9,-8.2 -9.6,-14.1 l -0.3,-0.9 h 79.5 z m -79.3,-9.3 c 0,-7.4 8.5,-20.3 26.8,-20.4 18.3,0 26.9,12.9 26.9,20.3 z"
   id="path1"
   style="fill:#ffffff" />&#10;	<path
   d="m 392.1,138.4 c -0.5,-1.2 -1.2,-2.2 -2.1,-3.1 -0.9,-0.9 -1.9,-1.6 -3.1,-2.1 -1.2,-0.5 -2.5,-0.8 -3.8,-0.8 -1.4,0 -2.6,0.3 -3.8,0.8 -1.2,0.5 -2.2,1.2 -3.1,2.1 -0.9,0.9 -1.6,1.9 -2.1,3.1 -0.5,1.2 -0.8,2.5 -0.8,3.8 0,1.4 0.3,2.6 0.8,3.8 0.5,1.2 1.2,2.2 2.1,3.1 0.9,0.9 1.9,1.6 3.1,2.1 1.2,0.5 2.5,0.8 3.8,0.8 1.4,0 2.6,-0.3 3.8,-0.8 1.2,-0.5 2.2,-1.2 3.1,-2.1 0.9,-0.9 1.6,-1.9 2.1,-3.1 0.5,-1.2 0.8,-2.5 0.8,-3.8 0,-1.3 -0.3,-2.6 -0.8,-3.8 z m -1.6,7 c -0.4,1 -1,1.9 -1.7,2.6 -0.7,0.7 -1.6,1.3 -2.6,1.7 -1,0.4 -2,0.6 -3.2,0.6 -1.1,0 -2.2,-0.2 -3.2,-0.6 -1,-0.4 -1.9,-1 -2.6,-1.7 -0.7,-0.7 -1.3,-1.6 -1.7,-2.6 -0.4,-1 -0.6,-2 -0.6,-3.2 0,-1.1 0.2,-2.2 0.6,-3.2 0.4,-1 1,-1.9 1.7,-2.6 0.7,-0.7 1.6,-1.3 2.6,-1.7 1,-0.4 2,-0.6 3.2,-0.6 1.1,0 2.2,0.2 3.2,0.6 1,0.4 1.9,1 2.6,1.7 0.7,0.7 1.3,1.6 1.7,2.6 0.4,1 0.6,2 0.6,3.2 0.1,1.2 -0.2,2.2 -0.6,3.2 z m -5.6,-2.4 c 0.8,-0.1 1.4,-0.4 1.9,-0.9 0.5,-0.5 0.8,-1.2 0.8,-2.2 0,-1.1 -0.3,-1.9 -1,-2.5 -0.6,-0.6 -1.7,-0.9 -3,-0.9 h -4.4 v 11.3 h 2.1 v -4.6 h 1.5 l 2.8,4.6 h 2.2 z m -1.1,-1.6 c -0.3,0 -0.6,0 -1,0 h -1.5 v -3.2 h 1.5 c 0.3,0 0.6,0 1,0 0.3,0 0.6,0.1 0.9,0.2 0.3,0.1 0.5,0.3 0.6,0.5 0.1,0.2 0.2,0.5 0.2,0.9 0,0.4 -0.1,0.7 -0.2,0.9 -0.2,0.2 -0.4,0.4 -0.6,0.5 -0.3,0.1 -0.6,0.2 -0.9,0.2 z"
   id="path2-58"
   style="fill:#ffffff" />&#10;</g><g
         id="g1"
         transform="matrix(0.08467467,0,0,0.08467467,567.4762,45.483424)"
         style="fill:#ffffff">&#10;	<path
   class="st0"
   d="m 977.9,31.9 h 290.4 V 1279.5 H 977.9 V 1149.1 C 850.5,1297.2 693.4,1318 604.5,1318 219.3,1318 0,998 0,654.2 0,248.2 278.5,-0.7 607.5,-0.7 699.4,-0.7 859.4,23 977.9,177.1 Z M 296.3,660.1 c 0,216.3 136.3,397.1 346.7,397.1 183.7,0 352.6,-133.3 352.6,-394.1 0,-272.6 -168.9,-403 -352.6,-403 -210.4,0 -346.7,177.8 -346.7,400 z M 1614.1,31.9 h 290.4 v 112.6 c 32.6,-38.5 80,-80 121.5,-103.7 56.3,-32.6 112.6,-41.5 177.8,-41.5 71.1,0 148.2,11.9 228.2,59.3 l -118.5,263.7 c -65.2,-41.5 -118.5,-44.4 -148.2,-44.4 -62.2,0 -124.5,8.9 -180.8,68.2 -80,85.9 -80,204.5 -80,287.4 v 646 h -290.4 z m 1005.4,0 h 290.4 V 147.5 C 3007.7,29 3123.3,-0.7 3218.1,-0.7 c 130.4,0 251.9,62.2 323,183.7 103.7,-148.1 260.8,-183.7 370.4,-183.7 151.1,0 284.5,71.1 355.6,195.6 23.7,41.5 65.2,133.3 65.2,314.1 v 770.5 H 4041.9 V 592 c 0,-139.3 -14.8,-195.6 -26.7,-222.2 -17.8,-47.4 -62.2,-109.6 -165.9,-109.6 -71.1,0 -133.3,38.5 -171.9,91.9 -50.4,71.1 -56.3,177.8 -56.3,284.5 v 643 H 3330.7 V 592 c 0,-139.3 -14.8,-195.6 -26.7,-222.2 -17.8,-47.4 -62.2,-109.6 -166,-109.6 -71.1,0 -133.3,38.5 -171.9,91.9 -50.4,71.1 -56.3,177.8 -56.3,284.5 v 643 H 2619.4 V 31.9 Z"
   id="path1-9"
   style="fill:#ffffff" />&#10;</g></g></g><style
     type="text/css"
     id="style1">&#10;	.st0{fill:#0068B5;}&#10;</style><style
     type="text/css"
     id="style1-7">&#10;	.st0{fill:#080225;}&#10;</style></svg>
