<?xml version="1.0" encoding="UTF-8" standalone="no"?>
<!-- Created with Inkscape (http://www.inkscape.org/) -->

<svg
   width="66.26107mm"
   height="172.42407mm"
   viewBox="0 0 66.26107 172.42407"
   version="1.1"
   id="svg1"
   inkscape:version="1.3 (0e150ed, 2023-07-21)"
   sodipodi:docname="reproducibility-within-errors.svg"
   xmlns:inkscape="http://www.inkscape.org/namespaces/inkscape"
   xmlns:sodipodi="http://sodipodi.sourceforge.net/DTD/sodipodi-0.dtd"
   xmlns="http://www.w3.org/2000/svg"
   xmlns:svg="http://www.w3.org/2000/svg">
  <sodipodi:namedview
     id="namedview1"
     pagecolor="#ffffff"
     bordercolor="#000000"
     borderopacity="0.25"
     inkscape:showpageshadow="2"
     inkscape:pageopacity="0.0"
     inkscape:pagecheckerboard="0"
     inkscape:deskcolor="#d1d1d1"
     inkscape:document-units="mm"
     inkscape:zoom="1.4491366"
     inkscape:cx="-125.247"
     inkscape:cy="445.09263"
     inkscape:window-width="1920"
     inkscape:window-height="1027"
     inkscape:window-x="0"
     inkscape:window-y="31"
     inkscape:window-maximized="0"
     inkscape:current-layer="g25" />
  <defs
     id="defs1" />
  <g
     inkscape:label="Layer 1"
     inkscape:groupmode="layer"
     id="layer1"
     transform="translate(-29.994191,-112.48785)">
    <path
       style="fill:#ff0000;stroke:#ff5555;stroke-width:1;stroke-linecap:round;stroke-linejoin:round;stroke-miterlimit:3.9;stroke-dasharray:1, 8;stroke-dashoffset:0;paint-order:markers stroke fill;stroke-opacity:1"
       d="M 50.454965,125.27968 V 276.15422"
       id="path8"
       sodipodi:nodetypes="cc" />
    <path
       style="fill:#ff0000;stroke:#ff5555;stroke-width:1;stroke-linecap:round;stroke-linejoin:round;stroke-miterlimit:3.9;stroke-dasharray:1, 8;stroke-dashoffset:0;paint-order:markers stroke fill;stroke-opacity:1"
       d="M 65.588382,125.27968 V 276.15422"
       id="path9"
       sodipodi:nodetypes="cc" />
    <g
       id="g28"
       style="stroke:#f9f9f9">
      <g
         id="g6"
         transform="translate(0,-6.0109973)"
         style="stroke:#f9f9f9">
        <path
           style="fill:none;stroke:#f9f9f9;stroke-width:1;stroke-linecap:round;stroke-linejoin:round;stroke-miterlimit:3.9;paint-order:markers stroke fill"
           d="M 50.454965,131.59874 H 65.588382"
           id="path3"
           sodipodi:nodetypes="cc" />
        <path
           style="fill:none;stroke:#f9f9f9;stroke-width:1;stroke-linecap:round;stroke-linejoin:round;stroke-miterlimit:3.9;paint-order:markers stroke fill"
           d="m 65.588382,129.42192 v 4.35364"
           id="path4" />
        <path
           style="fill:none;stroke:#f9f9f9;stroke-width:1;stroke-linecap:round;stroke-linejoin:round;stroke-miterlimit:3.9;paint-order:markers stroke fill"
           d="m 50.454965,129.42192 v 4.35364"
           id="path5" />
        <circle
           style="fill:#ff5555;stroke:#f9f9f9;stroke-width:1;stroke-linecap:round;stroke-linejoin:round;stroke-miterlimit:3.9;paint-order:markers stroke fill;fill-opacity:1"
           id="path6"
           cx="58.021675"
           cy="131.59874"
           r="1.3852495" />
      </g>
      <g
         id="path10">
        <g
           id="g30">
          <path
             d="m 78.464773,135.89373 7.7,2.8 -7.7,2.8 c 1.4,-1.631 1.4,-3.962 0,-5.6 z"
             style="color:#000000;fill:#f9f9f9;fill-rule:evenodd;stroke:none;-inkscape-stroke:none"
             id="path31" />
          <path
             d="m 29.994191,120.18785 2.8,-7.7 2.8,7.7 c -1.631,-1.4 -3.962,-1.4 -5.6,0 z"
             style="color:#000000;fill:#f9f9f9;fill-rule:evenodd;stroke:none;-inkscape-stroke:none"
             id="path30" />
        </g>
        <path
           style="color:#000000;fill:#f9f9f9;stroke:none;stroke-linecap:round;stroke-linejoin:round;stroke-miterlimit:3.9;-inkscape-stroke:none;paint-order:markers stroke fill"
           d="m 32.794922,118.28711 a 0.5,0.5 0 0 0 -0.5,0.5 v 19.90625 a 0.50005,0.50005 0 0 0 0.5,0.5 h 47.070312 a 0.5,0.5 0 0 0 0.5,-0.5 0.5,0.5 0 0 0 -0.5,-0.5 H 33.294922 v -19.40625 a 0.5,0.5 0 0 0 -0.5,-0.5 z"
           id="path32" />
      </g>
    </g>
    <g
       id="g27"
       transform="translate(0,9.1409053)"
       style="stroke:#f9f9f9">
      <g
         id="path12">
        <g
           id="g33">
          <path
             d="m 78.464773,174.88761 7.7,2.8 -7.7,2.8 c 1.4,-1.631 1.4,-3.962 0,-5.6 z"
             style="color:#000000;fill:#f9f9f9;fill-rule:evenodd;stroke:none;-inkscape-stroke:none"
             id="path34" />
          <path
             d="m 29.994191,159.18173 2.8,-7.7 2.8,7.7 c -1.631,-1.4 -3.962,-1.4 -5.6,0 z"
             style="color:#000000;fill:#f9f9f9;fill-rule:evenodd;stroke:none;-inkscape-stroke:none"
             id="path33" />
        </g>
        <path
           style="color:#000000;fill:#f9f9f9;stroke:none;stroke-linecap:round;stroke-linejoin:round;stroke-miterlimit:3.9;-inkscape-stroke:none;paint-order:markers stroke fill"
           d="m 32.794922,157.28125 a 0.5,0.5 0 0 0 -0.5,0.5 v 19.90625 a 0.50005,0.50005 0 0 0 0.5,0.5 h 47.070312 a 0.5,0.5 0 0 0 0.5,-0.5 0.5,0.5 0 0 0 -0.5,-0.5 H 33.294922 v -19.40625 a 0.5,0.5 0 0 0 -0.5,-0.5 z"
           id="path35" />
      </g>
      <g
         id="g17"
         transform="translate(-4.5309026,32.982851)"
         style="fill:#8282ff;stroke:#f9f9f9;fill-opacity:1">
        <path
           style="fill:#8282ff;stroke:#f9f9f9;stroke-width:1;stroke-linecap:round;stroke-linejoin:round;stroke-miterlimit:3.9;paint-order:markers stroke fill;fill-opacity:1"
           d="M 50.454965,131.59874 H 65.588382"
           id="path15"
           sodipodi:nodetypes="cc" />
        <path
           style="fill:#8282ff;stroke:#f9f9f9;stroke-width:1;stroke-linecap:round;stroke-linejoin:round;stroke-miterlimit:3.9;paint-order:markers stroke fill;fill-opacity:1"
           d="m 65.588382,129.42192 v 4.35364"
           id="path16" />
        <path
           style="fill:#8282ff;stroke:#f9f9f9;stroke-width:1;stroke-linecap:round;stroke-linejoin:round;stroke-miterlimit:3.9;paint-order:markers stroke fill;fill-opacity:1"
           d="m 50.454965,129.42192 v 4.35364"
           id="path17" />
        <circle
           style="fill:#8282ff;stroke:#f9f9f9;stroke-width:1;stroke-linecap:round;stroke-linejoin:round;stroke-miterlimit:3.9;paint-order:markers stroke fill;fill-opacity:1"
           id="circle17"
           cx="58.021675"
           cy="131.59874"
           r="1.3852495" />
      </g>
      <text
         xml:space="preserve"
         style="font-weight:600;font-size:23.7958px;font-family:FreeSans;-inkscape-font-specification:'FreeSans Semi-Bold';text-align:center;letter-spacing:0.524907px;text-anchor:middle;fill:#43ff43;stroke:#f9f9f9;stroke-width:3.96779;stroke-linecap:round;stroke-linejoin:round;stroke-miterlimit:3.9;stroke-dasharray:3.96779, 31.7423;stroke-dashoffset:0;paint-order:markers stroke fill;fill-opacity:1"
         x="87.384125"
         y="183.36716"
         id="text23"><tspan
           sodipodi:role="line"
           id="tspan23"
           style="fill:#43ff43;stroke:#f9f9f9;stroke-width:3.96779;fill-opacity:1"
           x="87.646576"
           y="183.36716">✔</tspan></text>
    </g>
    <g
       id="g29"
       transform="translate(0,18.281811)"
       style="stroke:#f9f9f9">
      <g
         id="path13">
        <g
           id="g36">
          <path
             d="m 78.464773,213.88149 7.7,2.8 -7.7,2.8 c 1.4,-1.631 1.4,-3.962 0,-5.6 z"
             style="color:#000000;fill:#f9f9f9;fill-rule:evenodd;stroke:none;-inkscape-stroke:none"
             id="path37" />
          <path
             d="m 29.994191,198.17561 2.8,-7.7 2.8,7.7 c -1.631,-1.4 -3.962,-1.4 -5.6,0 z"
             style="color:#000000;fill:#f9f9f9;fill-rule:evenodd;stroke:none;-inkscape-stroke:none"
             id="path36" />
        </g>
        <path
           style="color:#000000;fill:#f9f9f9;stroke:none;stroke-linecap:round;stroke-linejoin:round;stroke-miterlimit:3.9;-inkscape-stroke:none;paint-order:markers stroke fill"
           d="m 32.794922,196.27539 a 0.5,0.5 0 0 0 -0.5,0.5 v 19.90625 a 0.50005,0.50005 0 0 0 0.5,0.5 h 47.070312 a 0.5,0.5 0 0 0 0.5,-0.5 0.5,0.5 0 0 0 -0.5,-0.5 H 33.294922 v -19.40625 a 0.5,0.5 0 0 0 -0.5,-0.5 z"
           id="path38" />
      </g>
      <g
         id="g20"
         transform="translate(11.374991,71.976707)"
         style="fill:#ff6eff;stroke:#f9f9f9;fill-opacity:1">
        <path
           style="fill:#ff6eff;stroke:#f9f9f9;stroke-width:1;stroke-linecap:round;stroke-linejoin:round;stroke-miterlimit:3.9;paint-order:markers stroke fill;fill-opacity:1"
           d="M 47.430424,131.59874 H 69.249669"
           id="path18"
           sodipodi:nodetypes="cc" />
        <path
           style="fill:#ff6eff;stroke:#f9f9f9;stroke-width:1;stroke-linecap:round;stroke-linejoin:round;stroke-miterlimit:3.9;paint-order:markers stroke fill;fill-opacity:1"
           d="m 69.292551,129.42192 v 4.35364"
           id="path19" />
        <path
           style="fill:#ff6eff;stroke:#f9f9f9;stroke-width:1;stroke-linecap:round;stroke-linejoin:round;stroke-miterlimit:3.9;paint-order:markers stroke fill;fill-opacity:1"
           d="m 47.279963,129.42192 v 4.35364"
           id="path20" />
        <circle
           style="fill:#ff6eff;stroke:#f9f9f9;stroke-width:1;stroke-linecap:round;stroke-linejoin:round;stroke-miterlimit:3.9;paint-order:markers stroke fill;fill-opacity:1"
           id="circle20"
           cx="58.021675"
           cy="131.59874"
           r="1.3852495" />
      </g>
      <text
         xml:space="preserve"
         style="font-weight:600;font-size:23.7958px;font-family:FreeSans;-inkscape-font-specification:'FreeSans Semi-Bold';text-align:center;letter-spacing:0.524907px;text-anchor:middle;fill:#43ff43;stroke:#f9f9f9;stroke-width:3.96779;stroke-linecap:round;stroke-linejoin:round;stroke-miterlimit:3.9;stroke-dasharray:3.96779, 31.7423;stroke-dashoffset:0;paint-order:markers stroke fill;fill-opacity:1"
         x="87.384125"
         y="222.36526"
         id="text24"><tspan
           sodipodi:role="line"
           id="tspan24"
           style="fill:#43ff43;stroke:#f9f9f9;stroke-width:3.96779;fill-opacity:1"
           x="87.646576"
           y="222.36526">✔</tspan></text>
    </g>
    <g
       id="g25"
       transform="translate(0,19.678204)"
       style="stroke:#f9f9f9">
      <g
         id="path14">
        <g
           id="g39">
          <path
             d="m 78.464773,253.40454 7.7,2.8 -7.7,2.8 c 1.4,-1.631 1.4,-3.962 0,-5.6 z"
             style="color:#000000;fill:#f9f9f9;fill-rule:evenodd;stroke:none;-inkscape-stroke:none"
             id="path40" />
          <path
             d="m 29.994191,237.69866 2.8,-7.7 2.8,7.7 c -1.631,-1.4 -3.962,-1.4 -5.6,0 z"
             style="color:#000000;fill:#f9f9f9;fill-rule:evenodd;stroke:none;-inkscape-stroke:none"
             id="path39" />
        </g>
        <path
           style="color:#000000;fill:#f9f9f9;stroke:none;stroke-linecap:round;stroke-linejoin:round;stroke-miterlimit:3.9;-inkscape-stroke:none;paint-order:markers stroke fill"
           d="m 32.794922,235.79883 a 0.5,0.5 0 0 0 -0.5,0.5 v 19.90625 a 0.50005,0.50005 0 0 0 0.5,0.5 h 47.070312 a 0.5,0.5 0 0 0 0.5,-0.5 0.5,0.5 0 0 0 -0.5,-0.5 H 33.294922 v -19.40625 a 0.5,0.5 0 0 0 -0.5,-0.5 z"
           id="path41" />
      </g>
      <g
         id="g23"
         transform="translate(-16.744356,111.49973)"
         style="fill:#800080;stroke:#f9f9f9">
        <path
           style="fill:#800080;stroke:#f9f9f9;stroke-width:1;stroke-linecap:round;stroke-linejoin:round;stroke-miterlimit:3.9;paint-order:markers stroke fill"
           d="m 53.797879,131.59874 h 9.084334"
           id="path21"
           sodipodi:nodetypes="cc" />
        <path
           style="fill:#800080;stroke:#f9f9f9;stroke-width:1;stroke-linecap:round;stroke-linejoin:round;stroke-miterlimit:3.9;paint-order:markers stroke fill"
           d="m 62.942547,129.42192 v 4.35364"
           id="path22" />
        <path
           style="fill:#800080;stroke:#f9f9f9;stroke-width:1;stroke-linecap:round;stroke-linejoin:round;stroke-miterlimit:3.9;paint-order:markers stroke fill"
           d="m 53.629967,129.42192 v 4.35364"
           id="path23" />
        <circle
           style="fill:#ff9855;stroke:#f9f9f9;stroke-width:1;stroke-linecap:round;stroke-linejoin:round;stroke-miterlimit:3.9;paint-order:markers stroke fill;fill-opacity:1"
           id="circle23"
           cx="58.021675"
           cy="131.59874"
           r="1.3852495" />
      </g>
      <text
         xml:space="preserve"
         style="font-weight:600;font-size:23.7958px;font-family:FreeSans;-inkscape-font-specification:'FreeSans Semi-Bold';text-align:center;letter-spacing:0.524907px;text-anchor:middle;fill:#ff5555;stroke:#f9f9f9;stroke-width:3.96779;stroke-linecap:round;stroke-linejoin:round;stroke-miterlimit:3.9;stroke-dasharray:3.96779, 31.7423;stroke-dashoffset:0;paint-order:markers stroke fill;fill-opacity:1"
         x="84.104424"
         y="263.64191"
         id="text25"><tspan
           sodipodi:role="line"
           id="tspan25"
           style="fill:#ff5555;stroke:#f9f9f9;stroke-width:3.96779;fill-opacity:1"
           x="84.366875"
           y="263.64191">✘</tspan></text>
    </g>
  </g>
</svg>
